# MagicaVoxel @ ephtracy

# material
mtllib eagle feathers.mtl

# normals
vn -1 0 0
vn 1 0 0
vn 0 0 1
vn 0 0 -1
vn 0 -1 0
vn 0 1 0

# texcoords
vt 0.0214844 0.5

# verts
v -0.5 0 2.5
v -0.5 1 2.5
v -0.5 1 1.5
v -0.5 0 1.5
v -0.5 0 -1.5
v -0.5 1 -1.5
v -0.5 1 -2.5
v -0.5 0 -2.5
v -1.5 0 -0.5
v -1.5 1 -0.5
v -1.5 1 -1.5
v -1.5 0 -1.5
v -2.5 0 0.5
v -2.5 1 0.5
v -2.5 1 -0.5
v -2.5 0 -0.5
v -1.5 0 1.5
v -1.5 1 1.5
v -1.5 1 0.5
v -1.5 0 0.5
v 0.5 0 2.5
v 0.5 0 1.5
v 0.5 1 1.5
v 0.5 1 2.5
v 0.5 0 -1.5
v 0.5 0 -2.5
v 0.5 1 -2.5
v 0.5 1 -1.5
v 1.5 0 1.5
v 1.5 0 0.5
v 1.5 1 0.5
v 1.5 1 1.5
v 1.5 0 -0.5
v 1.5 0 -1.5
v 1.5 1 -1.5
v 1.5 1 -0.5
v 2.5 0 0.5
v 2.5 0 -0.5
v 2.5 1 -0.5
v 2.5 1 0.5
v -0.5 0 0.5
v -0.5 0 -0.5
v 0.5 0 -0.5
v 0.5 0 0.5
v -0.5 1 0.5
v 0.5 1 0.5
v 0.5 1 -0.5
v -0.5 1 -0.5

# faces

usemtl palette

f 1/1/1 2/1/1 3/1/1 4/1/1

f 5/1/1 6/1/1 7/1/1 8/1/1

f 9/1/1 10/1/1 11/1/1 12/1/1

f 13/1/1 14/1/1 15/1/1 16/1/1

f 17/1/1 18/1/1 19/1/1 20/1/1

f 21/1/2 22/1/2 23/1/2 24/1/2

f 25/1/2 26/1/2 27/1/2 28/1/2

f 29/1/2 30/1/2 31/1/2 32/1/2

f 33/1/2 34/1/2 35/1/2 36/1/2

f 37/1/2 38/1/2 39/1/2 40/1/2

f 1/1/3 21/1/3 24/1/3 2/1/3

f 22/1/3 29/1/3 32/1/3 23/1/3

f 13/1/3 20/1/3 19/1/3 14/1/3

f 30/1/3 37/1/3 40/1/3 31/1/3

f 17/1/3 4/1/3 3/1/3 18/1/3

f 8/1/4 7/1/4 27/1/4 26/1/4

f 12/1/4 11/1/4 6/1/4 5/1/4

f 25/1/4 28/1/4 35/1/4 34/1/4

f 16/1/4 15/1/4 10/1/4 9/1/4

f 33/1/4 36/1/4 39/1/4 38/1/4

f 41/1/5 42/1/5 43/1/5 44/1/5

f 4/1/5 41/1/5 44/1/5 22/1/5

f 20/1/5 9/1/5 42/1/5 41/1/5

f 44/1/5 43/1/5 33/1/5 30/1/5

f 1/1/5 4/1/5 22/1/5 21/1/5

f 42/1/5 5/1/5 25/1/5 43/1/5

f 5/1/5 8/1/5 26/1/5 25/1/5

f 22/1/5 44/1/5 30/1/5 29/1/5

f 9/1/5 12/1/5 5/1/5 42/1/5

f 43/1/5 25/1/5 34/1/5 33/1/5

f 13/1/5 16/1/5 9/1/5 20/1/5

f 30/1/5 33/1/5 38/1/5 37/1/5

f 17/1/5 20/1/5 41/1/5 4/1/5

f 45/1/6 46/1/6 47/1/6 48/1/6

f 3/1/6 23/1/6 46/1/6 45/1/6

f 19/1/6 45/1/6 48/1/6 10/1/6

f 46/1/6 31/1/6 36/1/6 47/1/6

f 2/1/6 24/1/6 23/1/6 3/1/6

f 48/1/6 47/1/6 28/1/6 6/1/6

f 6/1/6 28/1/6 27/1/6 7/1/6

f 23/1/6 32/1/6 31/1/6 46/1/6

f 10/1/6 48/1/6 6/1/6 11/1/6

f 47/1/6 36/1/6 35/1/6 28/1/6

f 14/1/6 19/1/6 10/1/6 15/1/6

f 31/1/6 40/1/6 39/1/6 36/1/6

f 18/1/6 3/1/6 45/1/6 19/1/6

# numNormals 6
# numTexCoords 1
# numVerts 48
# numFaces 46
